<?xml version="1.0" encoding="UTF-8" standalone="no"?>
<svg
   xmlns:dc="http://purl.org/dc/elements/1.1/"
   xmlns:cc="http://creativecommons.org/ns#"
   xmlns:rdf="http://www.w3.org/1999/02/22-rdf-syntax-ns#"
   xmlns:svg="http://www.w3.org/2000/svg"
   xmlns="http://www.w3.org/2000/svg"
   xmlns:sodipodi="http://sodipodi.sourceforge.net/DTD/sodipodi-0.dtd"
   xmlns:inkscape="http://www.inkscape.org/namespaces/inkscape"
   version="1.0"
   viewBox="0 0 200 289.742"
   opacity=".33"
   id="svg4"
   sodipodi:docname="bg-alliance.svg"
   inkscape:version="1.0.2-2 (e86c870879, 2021-01-15)">
  <metadata
     id="metadata10">
    <rdf:RDF>
      <cc:Work
         rdf:about="">
        <dc:format>image/svg+xml</dc:format>
        <dc:type
           rdf:resource="http://purl.org/dc/dcmitype/StillImage" />
        <dc:title></dc:title>
      </cc:Work>
    </rdf:RDF>
  </metadata>
  <defs
     id="defs8" />
  <sodipodi:namedview
     pagecolor="#ffffff"
     bordercolor="#666666"
     borderopacity="1"
     objecttolerance="10"
     gridtolerance="10"
     guidetolerance="10"
     inkscape:pageopacity="0"
     inkscape:pageshadow="2"
     inkscape:window-width="1920"
     inkscape:window-height="1017"
     id="namedview6"
     showgrid="false"
     inkscape:snap-bbox="true"
     inkscape:bbox-paths="true"
     inkscape:bbox-nodes="true"
     inkscape:snap-bbox-midpoints="true"
     inkscape:snap-bbox-edge-midpoints="true"
     inkscape:object-paths="true"
     inkscape:snap-intersection-paths="true"
     inkscape:snap-smooth-nodes="true"
     inkscape:snap-midpoints="true"
     inkscape:snap-object-midpoints="true"
     inkscape:snap-center="true"
     inkscape:snap-text-baseline="true"
     inkscape:snap-page="true"
     inkscape:zoom="0.73341109"
     inkscape:cx="582.78937"
     inkscape:cy="-10.577072"
     inkscape:window-x="-8"
     inkscape:window-y="-8"
     inkscape:window-maximized="1"
     inkscape:current-layer="svg4" />
  <path
     style="fill:#000000;stroke-width:0.0597907"
     d="m 3.15e-4,262.67389 c 9e-4,-3.48385 0.41109,-9.19139 1.04956,-14.60406 5.08688,-43.12407 28.85709,-120.96953 54.66199,-179.013454 7.1086,-15.989623 14.05681,-29.683077 20.55435,-40.508221 l 1.38168,-2.301944 9.36743,-0.01513 9.36744,-0.01513 v 45.924835 45.924834 l -0.28401,0.31434 c -0.1562,0.17288 -0.79534,0.87675 -1.42029,1.56414 -18.33035,20.16164 -35.64527,48.04627 -51.12023,82.32604 -7.82329,17.32996 -15.04062,35.96498 -21.91799,56.59193 l -1.54498,4.63378 -10.04758,0.0151 -10.04759,0.0151 z M 178.365,258.81721 c -10.67143,-31.99612 -22.50785,-60.05001 -35.53003,-84.21081 -10.94271,-20.30268 -22.52146,-37.49128 -34.72911,-51.55519 -1.07907,-1.24314 -2.91809,-3.29739 -3.81009,-4.25598 l -0.61855,-0.66473 V 72.173412 26.216316 h 9.32328 9.32329 l 0.11585,0.164425 c 0.0637,0.09043 0.68003,1.106128 1.36958,2.2571 6.05439,10.105683 12.49162,22.677244 19.10417,37.309417 23.76186,52.580012 46.72935,124.611522 54.39096,170.582962 1.6919,10.15176 2.69456,19.75404 2.69555,25.81465 v 1.18086 H 189.96755 179.9352 l -1.57039,-4.70852 z M 44.783355,258.65358 c 0,-0.0236 0.87835,-3.4614 1.95188,-7.6396 1.66034,-6.46209 1.93892,-7.6065 1.8651,-7.66208 -0.0477,-0.0359 -2.88019,-2.23125 -6.29436,-4.87848 l -6.20759,-4.81316 7.70492,-0.0299 7.70491,-0.0299 0.0691,-0.14948 c 0.038,-0.0822 1.38,-3.49925 2.98226,-7.59342 1.60227,-4.09417 2.93154,-7.47789 2.95394,-7.51937 0.0224,-0.0416 0.52692,1.16676 1.12336,2.69059 0.59545,1.5213 1.95011,4.9789 3.01035,7.68357 l 1.92771,4.91756 7.70735,0.0152 7.70735,0.0152 -6.28099,4.86809 c -3.45456,2.67744 -6.28074,4.89717 -6.28041,4.93273 5.9e-4,0.0356 0.87429,3.46646 1.94215,7.62424 1.06787,4.15778 1.93136,7.56979 1.91889,7.58227 -0.0125,0.0125 -2.87824,-2.03732 -6.36836,-4.5551 -3.49012,-2.51778 -6.36008,-4.57779 -6.37769,-4.57779 -0.0176,0 -2.82193,2.01301 -6.23183,4.47335 -6.60475,4.76553 -6.528,4.71091 -6.528,4.64553 z m 85.415265,-1.92565 c 0.27656,-1.07885 1.15778,-4.50414 1.95825,-7.61176 0.81222,-3.15328 1.43406,-5.67859 1.40711,-5.7144 -0.0265,-0.0353 -2.85739,-2.24156 -6.29075,-4.90284 l -6.24248,-4.83867 7.71276,-0.0299 7.71276,-0.0299 2.99287,-7.63827 c 1.64608,-4.20104 3.00847,-7.63812 3.02752,-7.63795 0.0191,0 1.38103,3.43739 3.02661,7.63827 l 2.99195,7.63795 7.71316,0.0299 7.71315,0.0299 -6.20756,4.81316 c -3.41417,2.64723 -6.24638,4.84245 -6.2938,4.87826 -0.0731,0.0552 0.21218,1.22718 1.87449,7.70037 1.0784,4.1994 1.93187,7.62413 1.89661,7.61051 -0.0353,-0.0136 -2.90268,-2.07277 -6.37204,-4.5759 -3.46935,-2.50313 -6.33856,-4.53987 -6.37601,-4.52608 -0.0375,0.0138 -2.897,2.06516 -6.35456,4.55864 -3.45755,2.49346 -6.31041,4.54182 -6.33968,4.55191 -0.0293,0.0101 0.17306,-0.86436 0.44964,-1.9432 z m -50.676705,-42.0964 c 0,-0.0245 1.41262,-5.54417 3.13901,-12.26597 1.72638,-6.72181 3.13888,-12.22711 3.13888,-12.23402 0,-0.007 -4.56142,-3.5476 -10.13649,-7.86822 l -10.13649,-7.85567 12.42292,-0.0299 12.42293,-0.0299 4.80855,-12.27222 c 2.64471,-6.74972 4.823255,-12.25752 4.841225,-12.23955 0.018,0.018 2.1908,5.54046 4.82852,12.27221 l 4.79586,12.23956 12.42296,0.0299 12.42297,0.0299 -10.13124,7.85229 c -7.20657,5.58552 -10.12586,7.88112 -10.11265,7.95217 0.0225,0.12087 5.86724,22.90787 6.11149,23.82685 0.17088,0.64299 0.17118,0.64713 0.0405,0.56119 -0.0724,-0.0476 -4.68738,-3.37315 -10.25545,-7.3901 -6.08652,-4.39097 -10.151895,-7.2864 -10.194315,-7.26057 -0.0388,0.0236 -4.32168,3.10963 -9.51749,6.85778 -5.19582,3.74814 -9.77653,7.05195 -10.17937,7.34179 -0.40284,0.28984 -0.73238,0.50696 -0.7323,0.48248 z"
     id="path849" />
</svg>
