<?xml version="1.0" encoding="UTF-8" standalone="no"?>
<svg
   xmlns:dc="http://purl.org/dc/elements/1.1/"
   xmlns:cc="http://creativecommons.org/ns#"
   xmlns:rdf="http://www.w3.org/1999/02/22-rdf-syntax-ns#"
   xmlns:svg="http://www.w3.org/2000/svg"
   xmlns="http://www.w3.org/2000/svg"
   xmlns:sodipodi="http://sodipodi.sourceforge.net/DTD/sodipodi-0.dtd"
   xmlns:inkscape="http://www.inkscape.org/namespaces/inkscape"
   version="1.0"
   viewBox="0 0 200 289.742"
   opacity=".33"
   id="svg4"
   sodipodi:docname="bg-cerberus.svg"
   inkscape:version="1.0.2-2 (e86c870879, 2021-01-15)">
  <metadata
     id="metadata10">
    <rdf:RDF>
      <cc:Work
         rdf:about="">
        <dc:format>image/svg+xml</dc:format>
        <dc:type
           rdf:resource="http://purl.org/dc/dcmitype/StillImage" />
        <dc:title></dc:title>
      </cc:Work>
    </rdf:RDF>
  </metadata>
  <defs
     id="defs8" />
  <sodipodi:namedview
     pagecolor="#ffffff"
     bordercolor="#666666"
     borderopacity="1"
     objecttolerance="10"
     gridtolerance="10"
     guidetolerance="10"
     inkscape:pageopacity="0"
     inkscape:pageshadow="2"
     inkscape:window-width="1920"
     inkscape:window-height="1017"
     id="namedview6"
     showgrid="false"
     inkscape:snap-bbox="true"
     inkscape:bbox-paths="true"
     inkscape:bbox-nodes="true"
     inkscape:snap-bbox-edge-midpoints="true"
     inkscape:snap-bbox-midpoints="true"
     inkscape:object-paths="true"
     inkscape:snap-intersection-paths="true"
     inkscape:snap-smooth-nodes="true"
     inkscape:snap-midpoints="true"
     inkscape:snap-object-midpoints="true"
     inkscape:snap-center="true"
     inkscape:snap-text-baseline="true"
     inkscape:snap-page="true"
     inkscape:zoom="1.0371999"
     inkscape:cx="-191.9633"
     inkscape:cy="-68.59761"
     inkscape:window-x="-8"
     inkscape:window-y="-8"
     inkscape:window-maximized="1"
     inkscape:current-layer="svg4" />
  <path
     style="fill:#000000;stroke-width:0.0880943"
     d="m 37.959581,257.06459 -22.39797,-32.69306 0.005,-71.86396 0.005,-71.863946 11.380779,-10.868566 11.380781,-10.868565 0.0221,79.786627 0.0221,79.78663 11.01193,16.07333 11.01193,16.07333 -0.0222,19.56562 -0.0222,19.56563 z m 101.726839,13.05327 v -19.56462 l 11.00915,-16.0651 11.00915,-16.06511 0.0247,-79.73377 0.0247,-79.733764 11.34214,10.840767 11.34213,10.840766 v 71.894461 71.89446 l -22.29465,32.54457 c -12.26206,17.89951 -22.33124,32.58223 -22.37594,32.62826 -0.0497,0.0511 -0.0813,-7.52879 -0.0813,-19.48092 z m -34.79723,-32.94297 v -36.82681 l 12.3332,-11.74213 12.33319,-11.74212 V 129.06038 81.256943 L 114.83546,67.956381 c -8.09606,-7.315309 -14.77064,-13.295916 -14.8324,-13.290239 -0.0618,0.0057 -6.73519,5.991682 -14.829849,13.302233 l -14.71756,13.291909 -0.003,47.791126 -0.003,47.79113 12.3236,11.71654 12.3236,11.71654 0.007,36.82025 c 0.006,31.66646 -0.0106,36.80219 -0.1173,36.69126 -0.0682,-0.071 -11.069011,-14.49274 -24.446161,-32.04842 L 46.21841,209.81929 V 130.59538 51.371476 L 72.53657,26.228069 C 87.011561,12.399194 99.11962,0.8370901 99.443381,0.5345021 l 0.588639,-0.5501599 26.91488,25.7059938 26.91487,25.705996 0.004,79.178598 0.004,79.17861 -24.41306,32.04039 c -13.42718,17.62221 -24.44777,32.07805 -24.49021,32.12408 -0.0441,0.0479 -0.0771,-15.67101 -0.0771,-36.74312 z"
     id="path844" />
</svg>
